<svg id="Capa_1" enable-background="new 0 0 512 512" height="512" viewBox="0 0 512 512" width="512" xmlns="http://www.w3.org/2000/svg"><g><path d="m316 8.79v81.21h81.21z"/><path d="m286 287c0-57.9 47.1-105 105-105 5.09 0 10.1.36 15 1.08v-63.08h-120v-120h-270v512h240v-180h30zm-210-105h120v30h-120zm45 270c-24.81 0-45-20.19-45-45s20.19-45 45-45 45 20.19 45 45-20.19 45-45 45zm135-180h-180v-30h180z"/><circle cx="121" cy="407" r="15"/><path d="m391 272c-8.27 0-15 6.73-15 15v45h30v-45c0-8.27-6.73-15-15-15z"/><path d="m466 362v-75c0-41.36-33.65-75-75-75s-75 33.64-75 75v75h-30v150h210v-150zm-120-75c0-24.81 20.19-45 45-45s45 20.19 45 45v75h-90zm60 165h-30v-30h30z"/></g></svg>